<?xml version="1.0" encoding="utf-8"?>
<!-- Generator: Adobe Illustrator 16.0.0, SVG Export Plug-In . SVG Version: 6.00 Build 0)  -->
<!DOCTYPE svg PUBLIC "-//W3C//DTD SVG 1.1//EN" "http://www.w3.org/Graphics/SVG/1.1/DTD/svg11.dtd">
<svg version="1.1" id="Layer_1" xmlns="http://www.w3.org/2000/svg" xmlns:xlink="http://www.w3.org/1999/xlink" x="0px" y="0px"
	 width="401.633px" height="409.636px" viewBox="0 0 401.633 409.636" enable-background="new 0 0 401.633 409.636"
	 xml:space="preserve">
<g>
	<path fill="#F4F3F5" d="M401.633,178.415c0,74.407,0,148.813,0,223.219c-1.03,3.898-3.291,6.691-7.198,8.002
		c-129.079,0-258.156,0-387.234,0c-3.892-1.326-6.202-4.072-7.2-8.002c0-74.406,0-148.813,0-223.219
		c2.228-2.661,3.982-6.043,6.759-7.871c22.139-14.564,44.473-28.832,66.743-43.197c4.007-2.584,9.554-4.353,11.555-8.038
		c2.02-3.72,0.526-9.354,0.547-14.148c0.037-8.217,3.092-11.315,11.337-11.337c11.195-0.03,22.392,0.121,33.583-0.107
		c2.49-0.051,5.262-0.855,7.382-2.161c20.07-12.356,40.099-24.786,59.968-37.459c5.043-3.217,9.231-3.331,14.314-0.088
		c20.093,12.819,40.349,25.386,60.625,37.917c1.799,1.112,4.17,1.759,6.293,1.807c8.792,0.199,17.59,0.02,26.386,0.105
		c7.264,0.071,10.469,3.34,10.528,10.523c0.037,4.398-0.099,8.8,0.083,13.191c0.044,1.083,0.734,2.563,1.604,3.126
		c25.711,16.642,51.533,33.11,77.17,49.866C397.655,172.361,399.407,175.753,401.633,178.415z M102.777,111.264
		c-0.063,1.242-0.151,2.155-0.151,3.069c-0.007,61.844,0.006,123.687-0.055,185.53c-0.002,2.27,0.671,3.635,2.64,4.787
		c6.895,4.035,13.763,8.127,20.491,12.43c2.337,1.494,4.053,1.521,6.476,0.119c19.124-11.076,38.398-21.895,57.482-33.039
		c4.825-2.818,8.922-2.771,13.771-0.076c21.06,11.705,42.288,23.107,63.381,34.754c2.429,1.34,4.147,1.334,6.483-0.156
		c7.297-4.648,14.695-9.154,22.201-13.459c2.633-1.512,3.603-3.172,3.598-6.27c-0.105-61.043-0.078-122.086-0.078-183.13
		c0-1.434,0-2.867,0-4.558C233.469,111.264,168.357,111.264,102.777,111.264z M364.616,392.39c0.057-0.236,0.113-0.473,0.17-0.707
		c-0.44-0.25-0.879-0.504-1.324-0.746c-54.822-29.91-109.657-59.799-164.432-89.797c-2.253-1.234-3.643-0.518-5.415,0.496
		c-51.449,29.414-102.91,58.809-154.363,88.215c-1.092,0.625-2.127,1.35-3.988,2.539C145.704,392.39,255.161,392.39,364.616,392.39z
		 M85.414,292.548c0-51.057,0-101.462,0-152.296c-0.876,0.463-1.452,0.713-1.974,1.049c-21.27,13.687-42.559,27.344-63.739,41.168
		c-1.222,0.797-2.199,2.947-2.209,4.475c-0.145,20.384-0.05,40.769-0.157,61.149c-0.013,2.51,0.928,3.801,2.986,5
		c6.554,3.818,12.992,7.838,19.478,11.773C54.805,273.974,69.813,283.08,85.414,292.548z M316.336,140.27
		c0,50.973,0,101.351,0,151.929c0.69-0.287,1.072-0.393,1.396-0.59c21.4-12.967,42.822-25.898,64.123-39.027
		c1.293-0.797,2.27-3.172,2.283-4.819c0.154-20.114,0.037-40.233,0.174-60.349c0.018-2.797-1.008-4.279-3.234-5.701
		c-20.529-13.116-40.996-26.33-61.484-39.508C318.622,141.579,317.605,141.02,316.336,140.27z M383.999,271.365
		c-32.346,19.643-64.211,38.994-96.567,58.643c32.493,17.725,64.339,35.094,96.567,52.672
		C383.999,345.398,383.999,308.724,383.999,271.365z M17.772,271.47c0,37.281,0,73.922,0,111.01
		c31.53-18.018,62.583-35.762,94.198-53.828C80.324,309.441,49.295,290.605,17.772,271.47z M167.342,93.416
		c25.634,0,50.079,0,75.503,0c-12.603-7.877-24.29-15.244-36.083-22.438c-0.91-0.556-2.793-0.312-3.825,0.27
		c-3.933,2.217-7.701,4.726-11.532,7.122C183.674,83.206,175.942,88.039,167.342,93.416z"/>
	<path fill="#F4F3F5" d="M104.809,0c3.569,1.678,5.582,4.587,6.991,8.199c4.875,12.504,9.915,24.944,14.842,37.429
		c0.628,1.591,1.211,3.271,1.386,4.955c0.409,3.945-2.006,7.442-5.663,8.615c-3.779,1.211-7.692-0.045-9.681-3.504
		c-1.379-2.401-2.334-5.056-3.373-7.64c-4.509-11.22-8.986-22.453-13.461-33.688C92.901,6.962,94.041,3.689,100.809,0
		C102.142,0,103.476,0,104.809,0z"/>
	<path fill="#F4F3F5" d="M309.625,0c6.608,4.023,7.646,7,4.795,14.185c-5.1,12.846-10.246,25.672-15.367,38.509
		c-1.283,3.216-3.059,5.897-6.752,6.703c-5.643,1.231-10.84-3.307-10.139-9.021c0.207-1.688,0.758-3.371,1.389-4.962
		c4.949-12.476,10.021-24.904,14.904-37.405c1.426-3.651,3.508-6.476,7.17-8.01C306.959,0,308.293,0,309.625,0z"/>
	<path fill="#F4F3F5" d="M51.946,94.664c-1.43,1.942-2.734,4.574-4.797,6.293c-2.548,2.124-6.147,2.256-8.519-0.045
		C27.463,90.078,16.418,79.107,5.65,67.877c-2.591-2.702-1.486-7.561,1.188-10.18c2.78-2.722,7.362-3.709,10.197-0.995
		c11.234,10.76,22.136,21.868,33.053,32.954C51.003,90.585,51.109,92.31,51.946,94.664z"/>
	<path fill="#F4F3F5" d="M350.312,92.373c0.666-1.125,1.558-3.577,3.22-5.28c9.391-9.632,18.918-19.135,28.504-28.573
		c4.235-4.17,9.213-4.342,12.799-0.782c3.506,3.48,3.322,8.652-0.752,12.779c-9.451,9.575-19,19.054-28.539,28.542
		c-2.849,2.831-6.17,4.296-10.133,2.523C352.081,100.092,350.31,97.435,350.312,92.373z"/>
	<path fill="#F4F3F5" d="M188.113,196.227c-16.257,0-32.515,0.018-48.772-0.008c-8.041-0.014-11.093-3.05-11.112-11.092
		c-0.035-15.324-0.036-30.649,0-45.974c0.018-8,3.169-11.135,11.119-11.138c32.514-0.012,65.029-0.015,97.543,0.002
		c7.689,0.004,10.886,3.186,10.908,10.942c0.046,15.458,0.046,30.915,0,46.373c-0.023,7.794-3.123,10.868-10.916,10.884
		C220.627,196.25,204.37,196.227,188.113,196.227z M145.583,178.997c28.543,0,56.6,0,84.783,0c0-11.327,0-22.435,0-33.631
		c-28.398,0-56.532,0-84.783,0C145.583,156.722,145.583,167.736,145.583,178.997z"/>
	<path fill="#F4F3F5" d="M128.437,264.326c0-5.561,0-10.844,0-16.514c45.32,0,90.619,0,136.151,0c0,5.418,0,10.82,0,16.514
		C219.363,264.326,174.15,264.326,128.437,264.326z"/>
	<path fill="#F4F3F5" d="M264.681,213.699c0,5.641,0,10.934,0,16.473c-45.396,0-90.65,0-136.184,0c0-5.406,0-10.793,0-16.473
		C173.853,213.699,219.094,213.699,264.681,213.699z"/>
</g>
</svg>
