<?xml version="1.0" encoding="utf-8"?>
<!-- Generator: Adobe Illustrator 16.0.0, SVG Export Plug-In . SVG Version: 6.00 Build 0)  -->
<!DOCTYPE svg PUBLIC "-//W3C//DTD SVG 1.1//EN" "http://www.w3.org/Graphics/SVG/1.1/DTD/svg11.dtd">
<svg version="1.1" id="Layer_1" xmlns="http://www.w3.org/2000/svg" xmlns:xlink="http://www.w3.org/1999/xlink" x="0px" y="0px"
	 width="342.43px" height="409.916px" viewBox="0 0 342.43 409.916" enable-background="new 0 0 342.43 409.916"
	 xml:space="preserve">
<g>
	<path fill-rule="evenodd" clip-rule="evenodd" fill="#D9232E" d="M187.216,409.916c-5.773-2.93-7.524-7.623-7.514-14.025
		c0.149-93.283,0.143-186.568,0.009-279.853c-0.009-6.023,1.93-10.216,6.591-14.034c21.645-17.73,43.064-35.734,64.565-53.64
		c0.921-0.767,1.831-1.552,2.783-2.279c4.965-3.794,9.725-3.979,14.537,0.005c23.298,19.288,46.554,38.626,69.67,58.129
		c2.084,1.759,3.074,4.817,4.572,7.271c0,96.275,0,192.551,0,288.824c-1.02,4.574-3.956,7.551-8.001,9.602
		C285.358,409.916,236.287,409.916,187.216,409.916z M261.048,66.895c-1.139,0.856-2.009,1.452-2.816,2.125
		c-18.329,15.271-36.62,30.589-55.017,45.779c-2.174,1.795-2.984,3.615-2.981,6.411c0.071,87.849,0.058,175.698,0.058,263.548
		c0,1.402,0,2.805,0,4.268c40.711,0,80.782,0,121.278,0c0-1.77,0-3.336,0-4.902c0-67.986,0-135.973,0-203.959
		c0-19.863,0.035-39.726-0.068-59.588c-0.008-1.533-0.518-3.614-1.58-4.509C300.46,99.667,280.879,83.41,261.048,66.895z"/>
	<path fill-rule="evenodd" clip-rule="evenodd" fill="#D9232E" d="M0,229.9c2.327-3.131,4.16-6.846,7.059-9.299
		c21.571-18.258,43.359-36.259,65.067-54.356c7.427-6.191,11.194-6.26,18.602-0.098c22.343,18.584,44.646,37.216,67.02,55.763
		c3.333,2.762,4.913,6.025,4.909,10.371c-0.052,55.334-0.078,110.668,0.032,166.002c0.011,5.771-2.999,9.033-7.475,11.633
		c-49.071,0-98.142,0-147.213,0c-4.045-2.051-6.981-5.027-8-9.602C0,343.509,0,286.705,0,229.9z M141.975,389.029
		c0.066-1.291,0.155-2.203,0.155-3.115c0.007-49.07,0.031-98.141-0.098-147.211c-0.005-1.666-1.141-3.816-2.445-4.918
		c-15.78-13.342-31.69-26.529-47.568-39.754c-3.459-2.881-6.928-5.752-10.475-8.696c-1.33,1.074-2.365,1.889-3.378,2.732
		c-18.035,15.009-36.034,30.064-54.146,44.98c-2.263,1.863-3.241,3.676-3.234,6.676c0.104,48.27,0.073,96.541,0.073,144.811
		c0,1.428,0,2.857,0,4.496C61.374,389.029,101.456,389.029,141.975,389.029z"/>
	<path fill-rule="evenodd" clip-rule="evenodd" fill="#D9232E" d="M0,186.696c2.599-3.226,4.761-6.968,7.868-9.593
		c21.484-18.155,43.161-36.083,64.787-54.071c6.784-5.643,10.955-5.626,17.654-0.045c22.327,18.603,44.646,37.218,67.008,55.779
		c3.012,2.5,5.211,5.273,5.178,9.406c-0.061,7.723-7.801,12.507-14.671,8.959c-1.519-0.785-2.909-1.875-4.232-2.975
		c-19.788-16.445-39.554-32.916-59.328-49.378c-0.813-0.677-1.649-1.326-2.794-2.244c-7.875,6.542-15.741,13.068-23.596,19.605
		c-12.502,10.403-24.991,20.822-37.499,31.218C10.44,201.615,3.725,199.674,0,187.496C0,187.229,0,186.963,0,186.696z"/>
	<path fill-rule="evenodd" clip-rule="evenodd" fill="#D9232E" d="M342.43,69.086c-0.193,0.493-0.548,0.983-0.557,1.479
		c-0.14,8.556-11.073,11.929-17.469,6.384c-9.868-8.557-20.027-16.778-30.066-25.138C283.286,42.606,272.23,33.407,260.929,24
		c-9.936,8.268-19.752,16.433-29.565,24.602c-11.064,9.211-22.1,18.458-33.217,27.604c-1.61,1.325-3.486,2.577-5.449,3.173
		c-4.647,1.412-9.37-0.701-11.628-4.772c-2.25-4.055-1.446-9.481,2.333-12.746c7.464-6.447,15.094-12.703,22.673-19.017
		c15.159-12.627,30.31-25.263,45.517-37.833c2.127-1.758,4.546-3.164,6.83-4.732c1.6,0,3.2,0,4.8,0
		c2.726,1.864,5.618,3.526,8.15,5.624c20.936,17.34,41.782,34.79,62.717,52.13c3.493,2.894,6.833,5.795,8.339,10.252
		C342.43,68.553,342.43,68.819,342.43,69.086z"/>
	<path fill-rule="evenodd" clip-rule="evenodd" fill="#D9232E" d="M250.553,251.324c-3.592,2.146-6.522,4.586-9.892,5.738
		c-4.236,1.447-8.435-0.648-10.678-4.211c-2.197-3.486-2.145-8.857,0.807-11.934c7.189-7.494,14.461-14.93,22.078-21.982
		c4.651-4.307,11.763-4.154,16.458,0.229c7.395,6.902,14.527,14.104,21.51,21.426c3.704,3.883,3.354,10.094-0.185,13.811
		c-3.663,3.848-9.829,4.191-14.116,0.699c-1.619-1.32-3.081-2.832-5.312-4.904c0,2.176,0,3.559,0,4.941
		c0,23.178,0.121,46.359-0.146,69.535c-0.035,3.033-1.297,6.742-3.307,8.932c-5.239,5.705-14.643,2.846-16.673-4.738
		c-0.473-1.766-0.52-3.684-0.522-5.533c-0.033-22.646-0.022-45.293-0.022-67.938C250.553,253.984,250.553,252.578,250.553,251.324z"
		/>
	<path fill-rule="evenodd" clip-rule="evenodd" fill="#D9232E" d="M91.876,321.294c2.182-2.078,3.541-3.502,5.033-4.768
		c4.222-3.582,10.414-3.379,14.163,0.395c3.722,3.748,4.015,10.129,0.183,14.117c-6.923,7.203-13.955,14.318-21.23,21.164
		c-4.934,4.641-12.099,4.645-17.066-0.016c-7.285-6.834-14.319-13.947-21.231-21.162c-3.822-3.986-3.509-10.387,0.188-14.111
		c3.736-3.762,9.949-4.006,14.154-0.373c1.497,1.293,2.637,2.998,3.94,4.514c0.399-0.145,0.798-0.291,1.197-0.436
		c0-1.34,0-2.68,0-4.02c0-23.32-0.124-46.645,0.153-69.965c0.036-3.014,1.395-6.717,3.439-8.869
		c5.26-5.543,14.318-2.809,16.462,4.631c0.541,1.877,0.588,3.943,0.592,5.924c0.039,22.523,0.024,45.045,0.024,67.568
		C91.876,317.345,91.876,318.802,91.876,321.294z"/>
</g>
</svg>
