<?xml version="1.0" encoding="utf-8"?>
<!-- Generator: Adobe Illustrator 16.0.0, SVG Export Plug-In . SVG Version: 6.00 Build 0)  -->
<!DOCTYPE svg PUBLIC "-//W3C//DTD SVG 1.1//EN" "http://www.w3.org/Graphics/SVG/1.1/DTD/svg11.dtd">
<svg version="1.1" id="Layer_1" xmlns="http://www.w3.org/2000/svg" xmlns:xlink="http://www.w3.org/1999/xlink" x="0px" y="0px"
	 width="673.999px" height="121.998px" viewBox="0 0 673.999 121.998" enable-background="new 0 0 673.999 121.998"
	 xml:space="preserve">
<g>
	<path fill-rule="evenodd" clip-rule="evenodd" fill="#EB2128" d="M162.642,3.547c-11.601,16.995-22.49,32.901-33.328,48.842
		c-5.723,8.419-5.271,8.725,0.837,17.179c10.521,14.559,20.5,29.51,30.744,44.27c1.407,2.027,1.219,2.914-1.441,2.877
		c-4.83-0.068-9.668-0.164-14.49,0.039c-2.515,0.107-3.511-1.447-4.646-3.094c-7.631-11.061-15.248-22.133-22.914-33.17
		c-1.018-1.467-2.287-2.76-3.786-4.545c-2.564,3.707-4.953,7.239-7.429,10.708c-1.247,1.746-1.078,3.068,0.219,4.875
		c4.646,6.471,9.045,13.117,13.526,19.705c1.006,1.479,1.96,2.992,3.551,5.426c-6.924,0-12.967,0.02-19.009-0.018
		c-1.228-0.008-2.188-0.613-2.776-1.77c-0.451-0.887-0.932-1.771-1.507-2.58c-2.021-2.848-3.539-7.008-6.285-8.131
		c-3.053-1.248-5.381,3.227-8.184,4.965c-7.547,4.68-15.704,7.385-24.539,7.479c-17.489,0.186-34.982,0-52.472,0.164
		c-3.205,0.031-3.859-1.08-3.852-4.035C4.951,77.751,4.952,42.77,4.864,7.788C4.856,4.704,5.446,3.426,8.932,3.463
		c17.489,0.186,34.982,0.011,52.472,0.125c11.085,0.073,20.882,3.914,29.224,11.172c2.236,1.946,3.885,2.577,5.157-0.507
		c3.983-9.658,11.377-12.347,21.087-10.748c1.773,0.292,3.637,0.042,5.826,0.042c-1.068,4.15-3.848,6.884-5.923,9.941
		c-13.835,20.38-27.89,40.611-41.715,60.998c-4.577,6.751-10.262,10.55-18.76,9.847c-5.294-0.439-10.656-0.152-15.984-0.053
		c-2.326,0.043-3.238-0.758-3.225-3.172c0.078-13.994,0.092-27.987-0.011-41.978c-0.02-2.698,1.013-3.396,3.529-3.346
		c6.66,0.137,13.327,0.119,19.988,0.037c4.764-0.059,8.263,2.342,11.221,5.644c1.904,2.126,3.342,2.528,4.886-0.21
		c0.406-0.719,0.984-1.34,1.477-2.01c5.864-7.965,5.487-9.985-3.234-15.051c-4.388-2.549-9.227-3.834-14.322-3.854
		c-11.66-0.044-23.322,0.075-34.981-0.076c-2.995-0.039-3.99,0.741-3.973,3.886c0.128,23.987,0.136,47.975-0.008,71.962
		c-0.02,3.26,1.135,3.828,4.029,3.787c10.492-0.148,20.994-0.279,31.481-0.006c12.596,0.33,22.241-4.764,29.286-14.99
		c13.027-18.912,25.981-37.872,38.965-56.812c4.894-7.138,9.851-14.233,14.639-21.44c1.545-2.326,3.331-3.292,6.164-3.168
		C151.324,3.708,156.438,3.547,162.642,3.547z M61.776,60.782c0-1.364,0.031-2.362-0.006-3.357
		c-0.137-3.697-2.449-4.737-5.702-4.679c-3.815,0.067-2.179,2.972-2.395,4.765c-0.237,1.965-0.153,3.988-0.019,5.974
		c0.092,1.353-0.789,3.291,1.235,3.827c2.177,0.577,4.32,0.131,5.937-1.647C62.218,64.133,61.66,62.201,61.776,60.782z"/>
	<path fill-rule="evenodd" clip-rule="evenodd" fill="#262223" d="M170.551,59.915c0-17.329,0.088-34.66-0.075-51.987
		c-0.032-3.395,0.728-4.572,4.351-4.517c15.327,0.233,30.665-0.135,45.985,0.259c13.438,0.345,25.538,4.339,34.523,15.19
		c5.202,6.282,7.825,13.586,8.146,21.574c0.574,14.308,1.346,28.661-0.573,42.917c-2.071,15.387-11.149,25.213-25.512,30.348
		c-6.645,2.377-13.577,3.223-20.641,3.191c-13.83-0.061-27.664-0.197-41.488,0.094c-4.175,0.088-4.832-1.381-4.794-5.08
		C170.65,94.574,170.551,77.245,170.551,59.915z M195.731,59.745c0,11.162-0.007,22.324,0.007,33.486
		c0.002,1.764-0.487,3.793,2.509,3.703c7.654-0.23,15.346,0.533,22.965-0.488c8.834-1.188,15.504-7.818,16.483-16.32
		c1.413-12.28,1.024-24.571,0.472-36.909c-0.537-11.999-9.349-19.469-21.324-19.966c-5.655-0.235-11.333,0.089-16.987-0.161
		c-3.248-0.144-4.273,0.825-4.207,4.171C195.866,38.084,195.73,48.917,195.731,59.745z"/>
	<path fill-rule="evenodd" clip-rule="evenodd" fill="#262223" d="M326.015,110.176c-13.484,9.432-26.887,9.512-40.49,4.383
		c-9.902-3.732-15.093-13.006-14.613-24.385c0.388-9.201,6.492-16.607,16.158-20.086c10.047-3.616,20.443-2.053,30.711-2.517
		c2.369-0.106,5.898,1.43,6.884-0.98c1.348-3.295,0.819-7.228-1.231-10.537c-1.083-1.749-2.653-3.089-4.605-3.678
		c-9.443-2.852-18.706-3.459-27.037,3.105c-1.523,1.2-2.416,1.826-4.118,0.224c-3.511-3.306-7.209-6.422-10.943-9.479
		c-1.787-1.463-1.634-2.411,0.049-3.856c5.056-4.344,10.811-7.23,17.346-8.335c11.979-2.025,23.896-1.846,35.608,1.775
		c11.722,3.625,18.846,12.472,19.038,24.654c0.277,17.658,0.021,35.326,0.172,52.986c0.026,3.061-1.188,3.568-3.812,3.469
		c-4.493-0.168-9.021-0.34-13.488,0.037C327.128,117.336,324.486,116.416,326.015,110.176z M312.741,81.838
		c-4.077,0.186-8.912-0.531-13.561,1.352c-3.248,1.314-5.1,3.582-5.523,6.994c-0.424,3.424,0.823,6.188,3.647,8.178
		c6.008,4.234,20.232,2.928,25.191-2.34c3.479-3.695,3.298-8.553,2.332-12.701c-0.781-3.354-4.877-0.836-7.42-1.432
		C316.15,81.594,314.766,81.838,312.741,81.838z"/>
	<path fill-rule="evenodd" clip-rule="evenodd" fill="#262223" d="M553.735,81.838c-8.654,0.002-17.312,0.119-25.963-0.063
		c-3.113-0.064-3.627,1.164-3.24,3.865c0.893,6.248,6.289,12.162,13.501,13.803c8.983,2.045,17.613,1.01,25.127-4.746
		c2.229-1.707,3.642-2.139,5.794,0.047c2.555,2.596,5.452,4.875,8.344,7.107c2.543,1.963,2.813,3.344,0.075,5.625
		c-15.737,13.104-46.003,14.201-62.326,2.09c-3.253-2.412-6.095-5.244-7.913-8.846c-8.728-17.289-8.947-34.727,0.966-51.43
		c8.097-13.643,27.608-19.569,45.846-15.116c17.884,4.367,28.403,17.543,29.001,36.324c0.361,11.339,0.361,11.339-10.736,11.339
		C566.051,81.838,559.893,81.838,553.735,81.838z M542.13,67.617c4.976,0,9.952-0.068,14.925,0.032
		c2.227,0.044,2.816-0.755,2.604-2.952c-0.79-8.191-7.643-14.193-16.861-14.563c-9.228-0.37-16.817,5.409-18.207,13.591
		c-0.548,3.223,0.517,4.096,3.612,3.951C532.837,67.459,537.488,67.62,542.13,67.617z"/>
	<path fill-rule="evenodd" clip-rule="evenodd" fill="#262223" d="M383.903,41.603c10.591-7.64,20.472-10.007,31.309-8.175
		c15.162,2.563,24.369,12.637,24.682,28.043c0.352,17.313,0.047,34.638,0.2,51.957c0.026,2.973-1.052,3.586-3.73,3.498
		c-5.322-0.178-10.665-0.234-15.982,0.018c-3.06,0.145-3.952-0.719-3.916-3.85c0.168-14.986,0.11-29.977,0.063-44.964
		c-0.042-13.084-10.165-19.93-22.447-15.23c-6.559,2.509-8.733,7.774-8.752,14.273c-0.04,13.656-0.017,27.312-0.018,40.968
		c-0.001,8.732,0,8.732-8.979,8.732c-3.663,0-7.338-0.168-10.988,0.053c-2.907,0.176-3.628-0.932-3.618-3.711
		c0.094-25.146,0.12-50.293-0.021-75.44c-0.02-3.492,1.275-4.224,4.379-4.046c3.983,0.227,7.992,0.119,11.987,0.037
		C382.289,33.68,386.877,33.026,383.903,41.603z"/>
	<path fill-rule="evenodd" clip-rule="evenodd" fill="#262223" d="M624.656,57.514c4.944-7.331,9.38-13.771,13.655-20.316
		c1.601-2.45,3.439-3.584,6.516-3.49c7.651,0.232,15.314,0.076,23.519,0.076c-2.233,4.717-5.618,8.1-8.435,11.844
		c-6.507,8.648-13.059,17.269-19.824,25.714c-1.938,2.417-1.852,3.922,0.014,6.307c9.92,12.688,19.651,25.522,30.13,39.196
		c-9.608,0-18.318-0.008-27.028,0.006c-1.669,0.004-2.131-1.34-2.879-2.41c-4.581-6.547-9.233-13.045-13.73-19.648
		c-1.45-2.127-2.289-2.273-3.798-0.014c-4.247,6.367-8.777,12.547-13.018,18.92c-1.532,2.303-3.202,3.328-6.078,3.25
		c-7.799-0.215-15.606-0.074-24.411-0.074c4.454-5.865,8.395-11.098,12.381-16.295c5.876-7.66,11.693-15.369,17.735-22.898
		c1.901-2.37,1.944-3.94,0.017-6.372c-8.583-10.824-16.961-21.813-25.359-32.784c-0.955-1.248-2.389-2.305-2.418-4.736
		c8.503,0,16.918,0.016,25.334-0.009c2.528-0.007,3.229,2.134,4.291,3.688C615.654,43.883,619.914,50.387,624.656,57.514z"/>
	<path fill-rule="evenodd" clip-rule="evenodd" fill="#262223" d="M456.654,74.956c-0.004-6.325-0.15-12.655,0.06-18.973
		c0.101-3.03-0.813-4.475-3.894-3.889c-5.483,1.043-6.974-1.569-6.173-6.479c0.133-0.812,0.02-1.662,0.02-2.494
		c-0.001-6.742-0.003-6.869,6.613-6.994c2.54-0.049,3.512-0.697,3.428-3.379c-0.183-5.82,0.081-11.654-0.115-17.473
		c-0.096-2.835,0.79-3.762,3.645-3.656c5.484,0.204,10.986,0.182,16.474,0.005c2.617-0.085,3.484,0.755,3.411,3.377
		c-0.161,5.821,0.097,11.655-0.111,17.473c-0.104,2.915,0.946,3.962,3.717,3.598c0.49-0.064,0.997-0.01,1.497-0.008
		c12.527,0.052,13.312,1.053,11.6,13.672c-0.286,2.104-1.251,2.37-2.913,2.352c-3.329-0.037-6.673,0.181-9.982-0.066
		c-3.14-0.233-3.957,0.972-3.917,3.984c0.153,11.482,0.01,22.969,0.084,34.452c0.042,6.529,2.197,8.609,8.748,8.836
		c0.831,0.029,1.683,0.121,2.493-0.012c4.244-0.693,5.687,0.713,5.556,5.305c-0.351,12.385-0.103,12.322-12.488,12.316
		c-5.772-0.002-11.346-0.859-16.365-3.709c-7.396-4.197-11.126-10.807-11.349-19.264C456.524,87.609,456.658,81.281,456.654,74.956z
		"/>
</g>
</svg>
