<?xml version="1.0" encoding="utf-8"?>
<!-- Generator: Adobe Illustrator 16.0.0, SVG Export Plug-In . SVG Version: 6.00 Build 0)  -->
<!DOCTYPE svg PUBLIC "-//W3C//DTD SVG 1.1//EN" "http://www.w3.org/Graphics/SVG/1.1/DTD/svg11.dtd">
<svg version="1.1" id="Layer_1" xmlns="http://www.w3.org/2000/svg" xmlns:xlink="http://www.w3.org/1999/xlink" x="0px" y="0px"
	 width="258.196px" height="409.635px" viewBox="0 0 258.196 409.635" enable-background="new 0 0 258.196 409.635"
	 xml:space="preserve">
<g>
	<path fill-rule="evenodd" clip-rule="evenodd" fill="#D9232E" d="M198.705,409.635c-46.404,0-92.808,0-139.212,0
		c-0.851-0.277-1.684-0.65-2.556-0.816c-28.008-5.322-46.409-21.547-54.412-48.898c-1.874-6.402-2.399-13.396-2.41-20.117
		c-0.151-89.99-0.116-179.979-0.093-269.969C0.028,40.322,13.183,18.777,39.809,5.996C45.921,3.062,52.908,1.95,59.492,0
		c46.404,0,92.808,0,139.212,0c0.851,0.277,1.684,0.651,2.556,0.817c28.008,5.322,46.408,21.546,54.412,48.898
		c1.874,6.403,2.399,13.396,2.411,20.119c0.151,89.989,0.116,179.979,0.093,269.967c-0.008,29.512-13.162,51.059-39.788,63.838
		C212.275,406.572,205.289,407.686,198.705,409.635z M238.062,204.817c0-44.936,0.01-89.872-0.021-134.808
		c-0.002-3.325,0.044-6.708-0.514-9.965c-4.115-23.985-23.082-39.935-47.625-39.98c-40.135-0.075-80.271-0.035-120.407-0.016
		c-29.202,0.014-49.34,20.036-49.349,49.162c-0.028,90.405-0.015,180.81,0.01,271.216c0.001,3.059-0.008,6.168,0.508,9.166
		c4.129,23.982,23.087,39.934,47.631,39.979c40.536,0.074,81.072,0.055,121.607-0.033c3.833-0.008,7.755-0.379,11.481-1.242
		c22.324-5.178,36.62-23.518,36.656-47.07C238.11,295.756,238.061,250.287,238.062,204.817z"/>
	<path fill-rule="evenodd" clip-rule="evenodd" fill="#D9232E" d="M224.799,190.827c0,40.667,0.003,81.335-0.002,122.003
		c-0.001,10.152-3.481,13.598-13.695,13.598c-54.801,0.002-109.602,0.002-164.402,0c-9.654-0.002-13.297-3.598-13.297-13.195
		c-0.006-81.602-0.007-163.203,0-244.804c0-9.592,3.66-13.211,13.293-13.212c54.935-0.002,109.868-0.002,164.803,0
		c9.637,0,13.295,3.619,13.297,13.208C224.804,109.225,224.799,150.026,224.799,190.827z M53.957,75.509
		c0,77.026,0,153.823,0,230.635c50.312,0,100.25,0,150.281,0c0-77.02,0-153.817,0-230.635
		C153.927,75.509,103.99,75.509,53.957,75.509z"/>
	<path fill-rule="evenodd" clip-rule="evenodd" fill="#D9232E" d="M128.899,379.379c-11.76-0.098-21.33-9.697-21.332-21.396
		c-0.001-11.846,9.836-21.541,21.729-21.41c11.778,0.129,21.332,9.717,21.332,21.41C150.628,369.84,140.839,379.479,128.899,379.379
		z"/>
	<path fill-rule="evenodd" clip-rule="evenodd" fill="#D9232E" d="M128.857,243.041c-13.059,0-26.117,0.025-39.175-0.01
		c-8.247-0.021-12.242-3.984-12.266-12.248c-0.047-16.123,0.058-32.247-0.056-48.369c-0.035-5.103,1.844-8.801,5.993-11.854
		c12.657-9.317,25.13-18.884,37.689-28.334c6.201-4.666,9.931-4.653,16.178,0.049c12.663,9.534,25.252,19.168,37.997,28.59
		c3.912,2.893,5.624,6.466,5.603,11.231c-0.07,16.39,0.026,32.78-0.05,49.169c-0.036,7.717-4.164,11.732-11.938,11.762
		C155.507,243.076,142.182,243.041,128.857,243.041z M97.566,222.705c7.588,0,14.588,0,21.975,0c0-5.535,0.031-10.84-0.012-16.143
		c-0.024-2.971,1.333-4.463,4.334-4.447c3.066,0.017,6.133-0.034,9.2-0.001c4.867,0.051,5.564,0.746,5.59,5.58
		c0.026,4.995,0.006,9.989,0.006,15.25c6.635,0,12.621-0.108,18.6,0.05c2.623,0.069,3.464-0.813,3.437-3.426
		c-0.116-10.665,0.021-21.333-0.139-31.998c-0.021-1.342-0.915-3.104-1.979-3.928c-9.061-7.018-18.216-13.917-27.472-20.675
		c-0.895-0.653-3.077-0.684-3.958-0.041c-9.259,6.754-18.397,13.675-27.495,20.647c-0.941,0.721-1.984,2.063-1.997,3.128
		C97.514,198.545,97.566,210.393,97.566,222.705z"/>
</g>
</svg>
